<svg width="1591" height="391" fill="none" xmlns="http://www.w3.org/2000/svg"><g clip-path="url('#clip0_105_2')"><path d="M393.209 36.45H-48.599V410.88H393.21V36.449Z" fill="url('#paint0_linear_105_2')"/><path d="M157.866-85.048v196.871h196.562L157.866-85.048Z" fill="url('#paint1_linear_105_2')"/><path d="m157.865-85.048-98.3 98.454 98.3 98.417V-85.048ZM157.866 111.822l98.261 98.454 98.301-98.454H157.866Z" fill="#FDD0F6"/><path d="m157.866 505.601 98.261-98.455-98.261-98.455v196.91ZM157.865 308.691l-98.3 98.455 98.3 98.455v-196.91Z" fill="#0B06F9"/><path d="m59.533 13.373-98.263 98.415 98.263 98.455V13.373Z" fill="url('#paint2_linear_105_2')"/><path d="m59.533 210.243 98.301-98.455-98.301-98.415v196.87Z" fill="url('#paint3_linear_105_2')"/><path d="m157.841 308.692 98.285-98.438-98.285-98.439-98.284 98.439 98.284 98.438Z" fill="url('#paint4_linear_105_2')"/><path d="m-38.738-85.006-98.285 98.439 98.285 98.438 98.285-98.438-98.285-98.439Z" fill="url('#paint5_linear_105_2')"/><path d="m256.107 210.253-98.284 98.438 98.284 98.439 98.285-98.439-98.285-98.438Z" fill="url('#paint6_linear_105_2')"/><path d="m-38.706 210.245-98.302 98.457 98.303 98.456 98.302-98.456-98.303-98.457Z" fill="#FFD100"/><path d="m157.841 309.268 98.285 98.439-98.285 98.438-98.284-98.438 98.284-98.439Z" fill="url('#paint7_linear_105_2')"/></g><defs><linearGradient id="paint0_linear_105_2" x1="-28.718" y1="410.881" x2="404.254" y2="410.881" gradientUnits="userSpaceOnUse"><stop stop-color="#F7F2ED"/><stop offset="1" stop-color="#F7F2ED" stop-opacity="0"/></linearGradient><linearGradient id="paint1_linear_105_2" x1="157.866" y1="111.823" x2="256.622" y2="13.864" gradientUnits="userSpaceOnUse"><stop offset=".24" stop-color="#0B06F9"/><stop offset="1" stop-color="#0B06F9" stop-opacity="0"/></linearGradient><linearGradient id="paint2_linear_105_2" x1="55.643" y1="193.385" x2="161.676" y2="81.276" gradientUnits="userSpaceOnUse"><stop stop-color="#0B06F9"/><stop offset="1" stop-color="#121212"/></linearGradient><linearGradient id="paint3_linear_105_2" x1="55.643" y1="193.385" x2="161.676" y2="81.276" gradientUnits="userSpaceOnUse"><stop stop-color="#0B06F9"/><stop offset="1" stop-color="#121212"/></linearGradient><linearGradient id="paint4_linear_105_2" x1="55.643" y1="193.385" x2="161.676" y2="81.276" gradientUnits="userSpaceOnUse"><stop stop-color="#0B06F9"/><stop offset="1" stop-color="#121212"/></linearGradient><linearGradient id="paint5_linear_105_2" x1="-38.721" y1="-85.047" x2="-38.721" y2="111.833" gradientUnits="userSpaceOnUse"><stop offset=".406" stop-color="#4F4CFA"/><stop offset="1" stop-color="#4F4CFA" stop-opacity="0"/></linearGradient><linearGradient id="paint6_linear_105_2" x1="354.42" y1="308.712" x2="157.848" y2="308.712" gradientUnits="userSpaceOnUse"><stop offset=".406" stop-color="#4F4CFA"/><stop offset="1" stop-color="#4F4CFA" stop-opacity="0"/></linearGradient><linearGradient id="paint7_linear_105_2" x1="55.643" y1="424.575" x2="161.676" y2="536.684" gradientUnits="userSpaceOnUse"><stop stop-color="#0B06F9"/><stop offset="1" stop-color="#121212"/></linearGradient><clipPath id="clip0_105_2"><path fill="#fff" d="M0 0h1590.51v391H0z"/></clipPath></defs></svg>